{"title":"Double Di Trouble 2014 Punjabi DVDSCR-Rip x264 MP3-SuMoMaN","uid":10939393,"size":732892407,"categoryP":"video","categoryS":"movies","magnet":"?xt=urn:btih:8f7f1a20452f8930d6f4563e84b4e9f10c13924b&amp;dn=Double+Di+Trouble+2014+Punjabi+DVDSCR-Rip+x264+MP3-SuMoMaN&amp;tr=udp%3A%2F%2Ftracker.openbittorrent.com%3A80&amp;tr=udp%3A%2F%2Fopen.demonii.com%3A1337&amp;tr=udp%3A%2F%2Ftracker.coppersurfer.tk%3A6969&amp;tr=udp%3A%2F%2Fexodus.desync.com%3A6969","seeders":1,"leechers":2,"uploader":"HeroMaster","files":-1,"time":1409485139,"description":"::::::::::: SUMOMAN PRESENTS :::::::::::\n\n &lt;a href=&quot;\nhttp://i.imgur.com/QWpppC7.jpg&quot; rel=&quot;nofollow&quot; target=&quot;_NEW&quot;&gt;\nhttp://i.imgur.com/QWpppC7.jpg&lt;/a&gt;\n\n\n:::: Double Di Trouble 2014 Punjabi DVDSCR-Rip x264 Mp3 ::::\n\n\n::Information::\n\n\nDouble Di Trouble\n(2014)\n[1CD] DVDSCR Rip X264 Mp3\nSUMOMAN Exclusive\n\n\nMovie:............Double Di Trouble\nSource: ..........DVDSCR @ TeamTNT\nYear:.............2014\nLanguage..........Punjabi\n\n\n::More Information::\n\n\nFormat : Matroska\nFormat version : Version 4 / Version 2\nFile size : 691 MiB\nDuration : 1h 49mn\nOverall bit rate : 879 Kbps\n\n\nVideo\nID : 1\nFormat : MPEG-4 Visual\nCodec ID : XviD\nDuration : 1h 49mn\nBit rate : 765 Kbps\nWidth : 640 pixels\nHeight : 272 pixels\nDisplay aspect ratio : 2.35:1\nFrame rate mode : Constant\nFrame rate : 29.970 fps\nColor space : YUV\nChroma subsampling : 4:2:0\nBit depth : 8 bits\nScan type : Progressive\nCompression mode : Lossy\nBits/(Pixel*Frame) : 0.147\nStream size : 602 MiB (87%)\nWriting library : XviD 1.2.1 (UTC 2008-12-04)\nDefault : Yes\nForced : No\n\n\nAudio\nID : 2\nFormat : MPEG Audio\nFormat version : Version 1\nFormat profile : Layer 3\nMode : Joint stereo\nMode extension : MS Stereo\nCodec ID : A_MPEG/L3\nCodec ID/Hint : MP3\nDuration : 1h 49mn\nBit rate mode : Constant\nBit rate : 96.0 Kbps\nChannel(s) : 2 channels\nSampling rate : 32.0 KHz\nCompression mode : Lossy\nStream size : 75.5 MiB (11%)\n\n\n::IMDB::\n\n &lt;a href=&quot;\nhttp://www.imdb.com/title/tt3948208/&quot; rel=&quot;nofollow&quot; target=&quot;_NEW&quot;&gt;\nhttp://www.imdb.com/title/tt3948208/&lt;/a&gt;\n\n\n::Greetz and Respect::\n\n\nALL CREDIT Goes to SuMoMaN for Encoding and Distribution.\n\n\n::Poster::\n\n &lt;a href=&quot;\nhttp://i.imgur.com/sBvuYkc.jpg&quot; rel=&quot;nofollow&quot; target=&quot;_NEW&quot;&gt;\nhttp://i.imgur.com/sBvuYkc.jpg&lt;/a&gt;\n\n\n::Screenshots::\n\n &lt;a href=&quot;\nhttp://i.imgur.com/KGY9ZW4.jpg&quot; rel=&quot;nofollow&quot; target=&quot;_NEW&quot;&gt;\nhttp://i.imgur.com/KGY9ZW4.jpg&lt;/a&gt;\n\n &lt;a href=&quot;\nhttp://i.imgur.com/11t0mIq.jpg&quot; rel=&quot;nofollow&quot; target=&quot;_NEW&quot;&gt;\nhttp://i.imgur.com/11t0mIq.jpg&lt;/a&gt;\n\n &lt;a href=&quot;\nhttp://i.imgur.com/UtOVihc.jpg&quot; rel=&quot;nofollow&quot; target=&quot;_NEW&quot;&gt;\nhttp://i.imgur.com/UtOVihc.jpg&lt;/a&gt;\n\n\nSEED AND ENJOY!","torrent":{"xt":"urn:btih:8f7f1a20452f8930d6f4563e84b4e9f10c13924b","amp;dn":"Double+Di+Trouble+2014+Punjabi+DVDSCR-Rip+x264+MP3-SuMoMaN","amp;tr":["udp%3A%2F%2Ftracker.openbittorrent.com%3A80","udp%3A%2F%2Fopen.demonii.com%3A1337","udp%3A%2F%2Ftracker.coppersurfer.tk%3A6969","udp%3A%2F%2Fexodus.desync.com%3A6969"],"infoHash":"8f7f1a20452f8930d6f4563e84b4e9f10c13924b","infoHashBuffer":{"type":"Buffer","data":[143,127,26,32,69,47,137,48,214,244,86,62,132,180,233,241,12,19,146,75]},"announce":[],"urlList":[]}}